<svg width="534" height="670" viewBox="0 0 534 670" fill="none" xmlns="http://www.w3.org/2000/svg">
<path fill-rule="evenodd" clip-rule="evenodd" d="M14.5 406.175C5.82891 427.004 0.984742 449.227 0.200012 471.775C1.3966 485.682 6.13932 499.049 13.975 510.6C28.7192 527.67 46.4505 541.911 66.3 552.625L194.5 637.975C210.275 650.529 228.013 660.395 247 667.175C259.328 670.109 272.172 670.109 284.5 667.175C303.614 660.478 321.494 650.681 337.425 638.175L467 552.775C487.052 542.03 504.985 527.731 519.925 510.575C527.817 498.961 532.555 485.496 533.675 471.5C532.824 448.768 527.851 426.38 519 405.425L405.675 48.775C403.145 37.2244 398.574 26.2184 392.175 16.275C387.515 10.6124 381.493 6.22535 374.675 3.52498C363.282 0.436136 351.43 -0.596692 339.675 0.474978H192.125C180.365 -0.593973 168.509 0.464603 157.125 3.59998C150.29 6.29491 144.264 10.7028 139.625 16.4C133.254 26.3439 128.724 37.3525 126.25 48.9L14.5 406.175ZM345.5 76.175C350.771 84.5551 354.504 93.8084 356.525 103.5L453.825 423.1C417.279 404.144 378.051 390.883 337.5 383.775L274.275 169.775C273.886 168.511 273.201 167.359 272.275 166.414C271.349 165.47 270.211 164.761 268.955 164.347C267.699 163.934 266.362 163.827 265.056 164.036C263.75 164.245 262.514 164.764 261.45 165.55C260.022 166.594 258.977 168.079 258.475 169.775L195.975 383.7C155.232 390.792 115.822 404.106 79.125 423.175L176.825 103.575C178.825 93.8655 182.569 84.599 187.875 76.225C191.745 71.4759 196.749 67.7787 202.425 65.475C211.988 62.8901 221.938 62.0433 231.8 62.975H301.625C311.496 62.0425 321.454 62.8892 331.025 65.475C336.718 67.7854 341.732 71.5011 345.6 76.275L345.5 76.175ZM270.175 461.5C300.262 463.242 330.099 455.142 355.175 438.425C358.025 447.398 359.036 456.854 358.147 466.227C357.258 475.6 354.487 484.698 350 492.975C340.776 508.652 327.39 521.468 311.325 530C294.475 540.7 279.975 550 279.975 574.675C279.954 582.59 281.741 590.406 285.2 597.525C273.837 592.806 264.127 584.826 257.297 574.591C250.467 564.357 246.823 552.329 246.825 540.025V538.5C246.825 521.425 246.825 500.4 222.775 500.4C219.422 500.398 216.102 501.052 213 502.325C206.758 504.91 201.796 509.863 199.2 516.1C197.911 519.198 197.24 522.519 197.225 525.875C180.741 507.873 171.886 484.176 172.525 459.775C172.408 449.214 173.883 438.696 176.9 428.575C186.9 447.5 224.9 461.575 270.175 461.575V461.5Z" fill="#FF5D01"/>
</svg>
