<svg width="346" height="346" viewBox="0 0 346 346" fill="none" xmlns="http://www.w3.org/2000/svg">
<path d="M322.107 258.262C324.508 254.103 326 249.417 326 245.209V99.14C326 94.932 324.51 90.247 322.108 86.088L173 172.175L322.107 258.262Z" fill="#00599C"/>
<path d="M186.25 341.193L312.75 268.159C316.394 266.055 319.706 262.422 322.107 258.262L173 172.175L23.893 258.263C26.294 262.422 29.607 266.056 33.25 268.159L159.75 341.193C167.037 345.401 178.963 345.401 186.25 341.193Z" fill="#004482"/>
<path d="M322.108 86.087C319.706 81.927 316.393 78.294 312.75 76.19L186.25 3.156C178.963 -1.052 167.037 -1.052 159.75 3.156L33.25 76.19C25.962 80.397 20 90.725 20 99.14V245.209C20 249.417 21.491 254.103 23.893 258.262L173 172.175L322.108 86.087Z" fill="#659AD2"/>
<path d="M173 274.175C116.757 274.175 71 228.418 71 172.175C71 115.932 116.757 70.175 173 70.175C209.292 70.175 243.139 89.705 261.331 121.143L217.188 146.687C208.083 130.951 191.15 121.175 173 121.175C144.878 121.175 122 144.053 122 172.175C122 200.296 144.878 223.175 173 223.175C191.152 223.175 208.085 213.399 217.191 197.66L261.334 223.203C243.142 254.644 209.294 274.175 173 274.175Z" fill="white"/>
<path d="M275 166.508H263.666V155.175H252.334V166.508H241V177.841H252.334V189.175H263.666V177.841H275V166.508Z" fill="white"/>
<path d="M317.5 166.508H306.166V155.175H294.834V166.508H283.5V177.841H294.834V189.175H306.166V177.841H317.5V166.508Z" fill="white"/>
</svg>
