<svg width="460" height="460" viewBox="0 0 460 460" fill="none" xmlns="http://www.w3.org/2000/svg">
<path fill-rule="evenodd" clip-rule="evenodd" d="M170.37 353.592C170.37 353.592 153.105 363.641 182.671 367.032C218.495 371.122 236.801 370.533 276.267 363.073C276.267 363.073 286.664 369.577 301.159 375.21C212.658 413.127 100.863 373.013 170.37 353.592Z" fill="#0074BD"/>
<path fill-rule="evenodd" clip-rule="evenodd" d="M159.55 304.104C159.55 304.104 140.183 318.443 169.771 321.501C208.042 325.452 238.254 325.776 290.563 315.709C290.563 315.709 297.781 323.041 309.148 327.048C202.162 358.342 83.0012 329.51 159.55 304.104Z" fill="#0074BD"/>
<path fill-rule="evenodd" clip-rule="evenodd" d="M250.713 220.145C272.531 245.26 244.992 267.842 244.992 267.842C244.992 267.842 300.359 239.265 274.937 203.462C251.185 170.089 232.975 153.511 331.56 96.338C331.56 96.338 176.806 134.979 250.713 220.145Z" fill="#EA2D2E"/>
<path fill-rule="evenodd" clip-rule="evenodd" d="M367.761 390.202C367.761 390.202 380.542 400.738 353.684 408.886C302.613 424.355 141.08 429.021 96.2141 409.505C80.0971 402.485 110.335 392.755 119.849 390.7C129.769 388.554 135.433 388.946 135.433 388.946C117.496 376.315 19.4981 413.753 85.6611 424.49C266.09 453.736 414.556 411.317 367.761 390.202Z" fill="#0074BD"/>
<path fill-rule="evenodd" clip-rule="evenodd" d="M178.679 252.822C178.679 252.822 96.5241 272.341 149.587 279.435C171.999 282.434 216.65 281.744 258.272 278.252C292.278 275.398 326.405 269.294 326.405 269.294C326.405 269.294 314.423 274.434 305.748 280.354C222.304 302.301 61.1361 292.08 107.541 269.642C146.768 250.665 178.679 252.822 178.679 252.822Z" fill="#0074BD"/>
<path fill-rule="evenodd" clip-rule="evenodd" d="M326.065 335.198C410.883 291.135 371.662 248.786 344.288 254.49C337.594 255.887 334.591 257.097 334.591 257.097C334.591 257.097 337.085 253.19 341.834 251.509C395.989 232.479 437.628 307.655 324.37 337.428C324.37 337.428 325.672 336.248 326.065 335.198Z" fill="#0074BD"/>
<path fill-rule="evenodd" clip-rule="evenodd" d="M274.938 4C274.938 4 321.901 50.99 230.381 123.227C156.988 181.196 213.647 214.236 230.355 252.005C187.51 213.352 156.084 179.321 177.163 147.653C208.117 101.174 293.882 78.632 274.938 4Z" fill="#EA2D2E"/>
<path fill-rule="evenodd" clip-rule="evenodd" d="M187.018 454.637C268.415 459.841 393.444 451.741 396.403 413.222C396.403 413.222 390.715 427.824 329.127 439.41C259.646 452.491 173.93 450.968 123.111 442.577C123.111 442.577 133.522 451.194 187.018 454.637Z" fill="#0074BD"/>
</svg>
