<svg width="150" height="150" viewBox="0 0 150 150" fill="none" xmlns="http://www.w3.org/2000/svg">
<mask id="mask0_3_118" style="mask-type:luminance" maskUnits="userSpaceOnUse" x="12" y="3" width="126" height="144">
<path d="M71.5679 3.90666L15.3946 36.3293C13.2907 37.5426 12 39.7826 12 42.2039V107.094C12 109.517 13.2907 111.756 15.3946 112.969L71.5719 145.417C73.6719 146.626 76.2612 146.626 78.3585 145.417L134.526 112.969C136.62 111.756 137.913 109.516 137.913 107.094V42.2039C137.913 39.7826 136.62 37.5426 134.513 36.3293L78.3532 3.90666C77.2999 3.30266 76.1265 3 74.9532 3C73.7799 3 72.6065 3.30266 71.5532 3.90666" fill="white"/>
</mask>
<g mask="url(#mask0_3_118)">
<path d="M194.678 30.824L36.392 -46.7626L-44.7679 118.802L113.514 196.393L194.678 30.824Z" fill="url(#paint0_linear_3_118)"/>
</g>
<mask id="mask1_3_118" style="mask-type:luminance" maskUnits="userSpaceOnUse" x="13" y="3" width="124" height="144">
<path d="M13.392 111.214C13.9293 111.912 14.6013 112.516 15.392 112.969L63.5786 140.802L71.6052 145.416C72.8052 146.109 74.1732 146.402 75.5172 146.302C75.9652 146.266 76.4132 146.182 76.8506 146.058L136.096 37.5786C135.642 37.0853 135.112 36.672 134.517 36.3253L97.7359 15.0853L78.2932 3.89868C77.7412 3.57868 77.1426 3.35202 76.5332 3.19202L13.392 111.214Z" fill="white"/>
</mask>
<g mask="url(#mask1_3_118)">
<path d="M-55.0452 53.7719L56.7213 205.042L204.534 95.8345L92.7612 -55.4319L-55.0452 53.7719Z" fill="url(#paint1_linear_3_118)"/>
</g>
<mask id="mask2_3_118" style="mask-type:luminance" maskUnits="userSpaceOnUse" x="15" y="3" width="123" height="144">
<path d="M74.2826 3.03735C73.3399 3.13069 72.4186 3.42401 71.5692 3.90668L15.556 36.236L75.9559 146.249C76.7959 146.129 77.6226 145.849 78.3692 145.417L134.542 112.969C136.276 111.964 137.462 110.262 137.822 108.334L76.2492 3.14801C75.7959 3.05868 75.3426 3.01202 74.8759 3.01202C74.6892 3.01202 74.5026 3.02134 74.3159 3.03868" fill="white"/>
</mask>
<g mask="url(#mask2_3_118)">
<path d="M15.5547 3.01202V146.252H137.798V3.01202H15.5547Z" fill="url(#paint2_linear_3_118)"/>
</g>
<defs>
<linearGradient id="paint0_linear_3_118" x1="115.488" y1="-8.09132" x2="34.3334" y2="157.463" gradientUnits="userSpaceOnUse">
<stop offset="0.3" stop-color="#3E863D"/>
<stop offset="0.5" stop-color="#55934F"/>
<stop offset="0.8" stop-color="#5AAD45"/>
</linearGradient>
<linearGradient id="paint1_linear_3_118" x1="1.50782" y1="130.274" x2="149.327" y2="21.0536" gradientUnits="userSpaceOnUse">
<stop offset="0.57" stop-color="#3E863D"/>
<stop offset="0.72" stop-color="#619857"/>
<stop offset="1" stop-color="#76AC64"/>
</linearGradient>
<linearGradient id="paint2_linear_3_118" x1="15.5959" y1="74.6359" x2="137.822" y2="74.6359" gradientUnits="userSpaceOnUse">
<stop offset="0.16" stop-color="#6BBF47"/>
<stop offset="0.38" stop-color="#79B461"/>
<stop offset="0.47" stop-color="#75AC64"/>
<stop offset="0.7" stop-color="#659E5A"/>
<stop offset="0.9" stop-color="#3E863D"/>
</linearGradient>
</defs>
</svg>
