<svg width="114" height="114" viewBox="0 0 114 114" fill="none" xmlns="http://www.w3.org/2000/svg">
<path d="M55.9188 1.00092C51.3351 1.02222 46.9578 1.41314 43.1063 2.09467C31.7601 4.09917 29.7 8.29477 29.7 16.0322V26.2509H56.5125V29.6572H29.7H19.6375C11.8451 29.6572 5.02178 34.3409 2.88754 43.2509C0.425715 53.4639 0.31652 59.8369 2.88754 70.5009C4.79346 78.4388 9.34508 84.0947 17.1375 84.0947H26.3563V71.8447C26.3563 62.9948 34.0134 55.1884 43.1063 55.1884H69.8875C77.3425 55.1884 83.2938 49.0503 83.2938 41.5634V16.0322C83.2938 8.76583 77.1638 3.30739 69.8875 2.09467C65.2815 1.32794 60.5024 0.979621 55.9188 1.00092ZM41.4188 9.21967C44.1883 9.21967 46.45 11.5183 46.45 14.3447C46.45 17.161 44.1883 19.4384 41.4188 19.4384C38.6393 19.4384 36.3875 17.161 36.3875 14.3447C36.3875 11.5183 38.6393 9.21967 41.4188 9.21967Z" fill="url(#paint0_linear_3_77)"/>
<path d="M86.6375 29.6572V41.5634C86.6375 50.7942 78.8116 58.5634 69.8875 58.5634H43.1063C35.7705 58.5634 29.7 64.8419 29.7 72.1884V97.7197C29.7 104.986 36.0186 109.26 43.1063 111.345C51.5936 113.84 59.7325 114.291 69.8875 111.345C76.6377 109.39 83.2938 105.457 83.2938 97.7197V87.5009H56.5125V84.0947H83.2938H96.7001C104.493 84.0947 107.396 78.6593 110.106 70.5009C112.906 62.102 112.787 54.0251 110.106 43.2509C108.181 35.4935 104.502 29.6572 96.7001 29.6572H86.6375ZM71.575 94.3134C74.3545 94.3134 76.6063 96.5908 76.6063 99.4072C76.6063 102.234 74.3545 104.532 71.575 104.532C68.8055 104.532 66.5438 102.234 66.5438 99.4072C66.5438 96.5908 68.8055 94.3134 71.575 94.3134Z" fill="url(#paint1_linear_3_77)"/>
<defs>
<linearGradient id="paint0_linear_3_77" x1="1" y1="1" x2="62.8267" y2="53.6849" gradientUnits="userSpaceOnUse">
<stop stop-color="#5A9FD4"/>
<stop offset="1" stop-color="#306998"/>
</linearGradient>
<linearGradient id="paint1_linear_3_77" x1="70.9307" y1="98.548" x2="48.7496" y2="67.4657" gradientUnits="userSpaceOnUse">
<stop stop-color="#FFD43B"/>
<stop offset="1" stop-color="#FFE873"/>
</linearGradient>
</defs>
</svg>
