<svg width="1200" height="1200" viewBox="0 0 1200 1200" fill="none" xmlns="http://www.w3.org/2000/svg">
<path d="M1011.29 703.015L999.22 678.009C999.283 677.062 999.331 676.111 999.331 675.156C999.331 646.81 969.853 620.685 920.262 599.767V617.16C915.426 615.241 910.391 613.373 905.145 611.567V603.459C834.271 577.899 728.762 561.681 610.904 561.681C507.931 561.681 414.375 574.061 345.113 594.235V622.481H345.111V588.293C274.151 610.843 230.157 642.17 230.157 676.808C230.157 682.268 231.258 687.646 233.374 692.921L226.146 705.788C226.146 705.788 220.354 713.3 230.552 729.15C239.546 743.127 284.6 797.835 308.379 826.485C318.593 841.172 325.52 850.219 326.125 849.344C327.08 847.958 319.774 820.383 299.49 788.921C290.024 772.026 278.722 749.638 271.936 733.102C290.878 745.092 402.166 801.131 629.168 800.903C861.162 800.671 964.283 728.052 975.601 718.166C971.646 734.055 958.133 766.199 947.356 788.804C929.65 821.135 923.236 849.282 924.06 850.674C924.584 851.552 930.625 842.233 939.536 827.131C960.267 797.588 999.553 741.192 1007.4 726.826C1016.3 710.541 1011.29 703.015 1011.29 703.015Z" fill="#A52B00"/>
<path d="M1081.38 702.876L1002.04 644.43C1001.29 641.83 1000.55 639.229 999.779 636.649L1025.84 598.895C1028.5 595.055 1029.04 590.063 1027.31 585.684C1025.58 581.326 1021.8 578.202 1017.32 577.437L973.254 569.958C971.545 566.473 969.756 563.042 967.96 559.639L986.475 517.251C988.378 512.934 987.98 507.916 985.453 503.997C982.936 500.06 978.667 497.76 974.115 497.939L929.391 499.564C927.076 496.548 924.724 493.561 922.324 490.627L932.602 445.195C933.644 440.583 932.328 435.752 929.115 432.401C925.92 429.062 921.277 427.679 916.862 428.762L873.3 439.471C870.48 436.978 867.612 434.518 864.712 432.106L866.279 385.465C866.447 380.744 864.246 376.257 860.467 373.636C856.69 371 851.897 370.604 847.766 372.562L807.128 391.883C803.855 390.005 800.563 388.146 797.236 386.346L790.055 340.385C789.326 335.729 786.331 331.773 782.136 329.967C777.951 328.15 773.16 328.739 769.488 331.503L733.256 358.688C729.687 357.503 726.103 356.368 722.477 355.281L706.86 311.696C705.272 307.253 701.61 303.99 697.144 303.072C692.694 302.163 688.116 303.704 685.03 307.152L654.531 341.271C650.846 340.848 647.154 340.461 643.455 340.14L619.906 300.464C617.522 296.446 613.309 294 608.767 294C604.238 294 600.017 296.446 597.649 300.464L574.094 340.14C570.393 340.461 566.686 340.848 563.006 341.271L532.507 307.152C529.417 303.704 524.823 302.163 520.385 303.072C515.925 304.002 512.257 307.253 510.678 311.696L495.049 355.281C491.428 356.368 487.844 357.511 484.269 358.688L448.049 331.503C444.366 328.729 439.571 328.142 435.381 329.967C431.2 331.773 428.193 335.729 427.468 340.385L420.282 386.346C416.96 388.146 413.668 389.995 410.387 391.883L369.753 372.562C365.626 370.596 360.808 371 357.049 373.636C353.276 376.257 351.069 380.744 351.239 385.465L352.801 432.106C349.907 434.518 347.045 436.978 344.21 439.471L300.656 428.762C296.233 427.688 291.594 429.062 288.391 432.401C285.17 435.752 283.865 440.583 284.9 445.195L295.157 490.627C292.779 493.572 290.424 496.548 288.115 499.564L243.391 497.939C238.878 497.804 234.57 500.06 232.048 503.997C229.521 507.916 229.138 512.934 231.019 517.251L249.547 559.639C247.748 563.042 245.961 566.473 244.238 569.958L200.175 577.437C195.696 578.191 191.923 581.313 190.181 585.684C188.453 590.063 189.014 595.055 191.655 598.895L217.721 636.649C217.52 637.316 217.334 637.988 217.134 638.657L143.438 716.942C143.438 716.942 132.142 725.793 148.585 746.596C163.085 764.947 237.536 837.692 276.856 875.801C293.462 895.149 304.84 907.13 306.028 906.094C307.904 904.449 298.056 869.247 265.346 827.945C240.13 790.889 207.405 733.896 215.079 727.327C215.079 727.327 223.808 716.246 241.321 708.27C241.962 708.782 240.659 707.763 241.321 708.27C241.321 708.27 610.916 878.761 953.75 711.154C992.914 704.129 1016.62 725.109 1016.62 725.109C1024.8 729.849 1003.63 788.453 986.216 827.246C962.537 871.296 959.065 905.668 961.072 906.86C962.34 907.617 970.955 894.507 983.244 873.643C1013.57 831.39 1070.89 750.841 1081.38 731.275C1093.28 709.093 1081.38 702.876 1081.38 702.876Z" fill="#F74C00"/>
<path d="M919.788 681.001C919.788 681.001 972.967 678.535 1042.82 607.539L1052.72 585.56C1052.72 585.56 944.301 477.712 1112.84 403.269C1112.84 403.269 1098.08 427.381 1102.41 520.541C1102.41 520.541 1153.23 502.892 1168.12 420.601C1168.12 420.601 1242.24 518.325 1087.62 609.978C1087.62 609.978 1015.08 726.267 912.817 715.128L919.788 681.001Z" fill="#F74C00"/>
<path d="M678.889 614.025C678.889 614.025 715.824 573.582 752.76 614.025C752.76 614.025 781.782 667.952 752.76 694.912C752.76 694.912 705.273 732.66 678.889 694.912C678.889 694.912 647.231 665.253 678.889 614.025Z" fill="black"/>
<path d="M721.653 629.029C721.653 644.775 712.371 657.543 700.921 657.543C689.473 657.543 680.191 644.775 680.191 629.029C680.191 613.279 689.473 600.511 700.921 600.511C712.371 600.511 721.653 613.279 721.653 629.029Z" fill="white"/>
<path d="M514.04 602.983C514.04 602.983 577.395 574.931 594.688 637.545C594.688 637.545 612.802 710.525 542.658 714.644C542.658 714.644 453.214 697.416 514.04 602.983Z" fill="black"/>
<path d="M545.86 630.062C545.86 646.301 536.288 659.471 524.479 659.471C512.675 659.471 503.1 646.301 503.1 630.062C503.1 613.818 512.675 600.651 524.479 600.651C536.288 600.651 545.86 613.818 545.86 630.062Z" fill="white"/>
<path d="M595.209 740.159L676.005 733.675C676.005 733.675 673.267 746.681 662.726 756.444C662.726 756.444 634.936 786.914 603.053 753.911C603.053 753.911 597.836 748.282 595.209 740.159Z" fill="black"/>
<path d="M271.688 665.375C271.021 665.375 270.367 665.424 269.715 665.476C243.481 659.505 169.742 640.291 150.251 609.113C150.251 609.113 249.478 496.241 94.3914 424.094L112.448 548.972C112.448 548.972 64.6394 517.023 54.3224 447.626C54.3224 447.626 -62.1006 532.12 105.706 613.1C105.706 613.1 120.926 670.287 267.055 715.915L267.162 715.48C268.633 715.752 270.139 715.915 271.688 715.915C285.496 715.915 296.691 704.603 296.691 690.644C296.691 676.688 285.496 665.375 271.688 665.375Z" fill="#F74C00"/>
</svg>
