<svg width="216" height="216" viewBox="0 0 216 216" fill="none" xmlns="http://www.w3.org/2000/svg">
<path fill-rule="evenodd" clip-rule="evenodd" d="M41.1977 80.92C43.0477 83.47 58.6477 88.28 81.9177 93.29C105.188 97.75 129.388 115.36 148.208 109.93C160.938 106.25 174.748 73.46 174.748 68.59V68.09C174.748 64.69 172.198 61.96 167.868 59.69C150.118 50.62 146.758 47.28 140.178 49.09C106.018 58.52 45.7077 53.7 41.1977 80.92Z" fill="#380D09"/>
<path fill-rule="evenodd" clip-rule="evenodd" d="M41.1977 147.5C43.0477 150.09 58.6477 154.86 81.9177 159.88C107.918 164.62 130.528 180.07 149.358 174.63C162.088 170.95 174.748 140.05 174.748 135.17V134.69C174.748 131.3 172.198 128.56 167.868 126.3C154.328 119.1 136.438 111.17 129.868 112.98C95.6477 122.39 49.9077 124.46 41.1977 147.5Z" fill="#380D09"/>
<path fill-rule="evenodd" clip-rule="evenodd" d="M41.0077 95.23V95.71C40.9974 95.5502 40.9974 95.3898 41.0077 95.23Z" fill="#555555"/>
<path fill-rule="evenodd" clip-rule="evenodd" d="M149.308 14.87C117.848 23.96 67.9377 29.09 41.0477 29.09V80.44C41.0563 80.6166 41.1231 80.7854 41.2377 80.92C59.5877 80.92 116.238 74.92 150.418 65.52C156.379 64.0028 162.224 62.0612 167.908 59.71C172.088 57.83 174.788 55.85 174.788 53.79V2C174.748 6.88 162.038 11.2 149.308 14.87Z" fill="#DE3423"/>
<path fill-rule="evenodd" clip-rule="evenodd" d="M149.308 81.46C130.478 86.89 105.068 90.93 81.9177 93.29C66.3777 94.88 51.8577 95.71 41.0477 95.71V147.02C41.0563 147.197 41.1231 147.365 41.2377 147.5C59.5877 147.5 116.238 141.5 150.418 132.11C156.377 130.588 162.222 128.647 167.908 126.3C172.088 124.41 174.788 122.44 174.788 120.38V68.59C174.748 73.46 162.038 77.78 149.308 81.46Z" fill="#DE3423"/>
<path fill-rule="evenodd" clip-rule="evenodd" d="M149.308 148.09C130.478 153.52 105.068 157.55 81.9177 159.92C66.3577 161.51 51.8177 162.34 41.0077 162.34V214.09C59.1677 214.09 116.108 208.14 150.378 198.7C163.008 195.22 174.748 191.26 174.748 186.96V135.17C174.748 140.09 162.038 144.37 149.308 148.09Z" fill="#DE3423"/>
</svg>
